<?xml version="1.0" standalone="no"?><!DOCTYPE svg PUBLIC "-//W3C//DTD SVG 1.1//EN" "http://www.w3.org/Graphics/SVG/1.1/DTD/svg11.dtd"><svg t="1736081815969" class="icon" viewBox="0 0 1024 1024" version="1.1" xmlns="http://www.w3.org/2000/svg" p-id="2476" xmlns:xlink="http://www.w3.org/1999/xlink" width="200" height="200"><path d="M885.64 268.45h40.59c13.18 0 23.86 10.53 23.86 23.52v548.6c0 12.99-10.68 23.53-23.86 23.53H97.77c-13.18 0-23.86-10.53-23.86-23.53v-548.6c0-12.99 10.68-23.52 23.86-23.52h787.87z" fill="#FFCC94" p-id="2477"></path><path d="M142.69 749.87c-5.47 0-9.91-5.06-9.91-11.31V183.19c0-12.49 8.87-22.61 19.82-22.61h297.23c32.83 0 59.45 30.37 59.45 67.84v521.45" fill="#F5F5FF" p-id="2478"></path><path d="M519.05 749.84c-5.56 0-10.06-5.07-10.06-11.32v-510.7c0-37.51 27.02-67.92 60.35-67.92H871.1c11.11 0 20.12 10.14 20.12 22.64v555.98c0 6.25-4.5 11.32-10.06 11.32" fill="#F5F5FF" p-id="2479"></path><path d="M661.31 380.08h-55.26c-18.64 0-33.8-15.16-33.8-33.8v-73.82c0-18.64 15.16-33.8 33.8-33.8h55.26c18.64 0 33.8 15.16 33.8 33.8v73.82c0.01 18.64-15.16 33.8-33.8 33.8z m-55.26-118.89c-6.21 0-11.27 5.05-11.27 11.27v73.82c0 6.21 5.05 11.27 11.27 11.27h55.26c6.21 0 11.27-5.05 11.27-11.27v-73.82c0-6.21-5.05-11.27-11.27-11.27h-55.26zM822.33 283.78h-82.86c-6.22 0-11.27-5.04-11.27-11.27 0-6.22 5.04-11.27 11.27-11.27h82.86c6.22 0 11.27 5.04 11.27 11.27 0 6.22-5.04 11.27-11.27 11.27zM822.33 352.74h-82.86c-6.22 0-11.27-5.04-11.27-11.27 0-6.22 5.04-11.27 11.27-11.27h82.86c6.22 0 11.27 5.04 11.27 11.27 0 6.22-5.04 11.27-11.27 11.27zM715.25 645.18H592.23c-6.22 0-11.27-5.04-11.27-11.27 0-6.22 5.04-11.27 11.27-11.27h123.02c6.22 0 11.27 5.04 11.27 11.27 0 6.22-5.04 11.27-11.27 11.27zM830.59 645.18h-57.06c-6.22 0-11.27-5.04-11.27-11.27 0-6.22 5.04-11.27 11.27-11.27h57.06c6.22 0 11.27 5.04 11.27 11.27 0 6.23-5.05 11.27-11.27 11.27zM661.45 455.86h-66.66c-6.22 0-11.27-5.04-11.27-11.27 0-6.22 5.04-11.27 11.27-11.27h66.66c6.22 0 11.27 5.04 11.27 11.27-0.01 6.22-5.05 11.27-11.27 11.27zM815.67 455.86h-98.73c-6.22 0-11.27-5.04-11.27-11.27 0-6.22 5.04-11.27 11.27-11.27h98.73c6.22 0 11.27 5.04 11.27 11.27 0 6.22-5.04 11.27-11.27 11.27zM762.97 566.82H594.79c-6.22 0-11.27-5.04-11.27-11.27 0-6.22 5.04-11.27 11.27-11.27h168.18c6.22 0 11.27 5.04 11.27 11.27 0 6.22-5.05 11.27-11.27 11.27z" fill="#B7B3FF" p-id="2480"></path><path d="M815.52 555.55m-11.27 0a11.27 11.27 0 1 0 22.54 0 11.27 11.27 0 1 0-22.54 0Z" fill="#B7B3FF" p-id="2481"></path><path d="M399.54 434.24h-31.52c-28.25 0-49.55-14.5-49.55-33.73V253.77c0-6.22 5.04-11.27 11.27-11.27s11.27 5.04 11.27 11.27v146.74c0 3.84 10.52 11.19 27.02 11.19h31.52c16.5 0 27.02-7.35 27.02-11.19V253.77c0-6.22 5.04-11.27 11.27-11.27s11.27 5.04 11.27 11.27v146.74c-0.02 19.23-21.32 33.73-49.57 33.73zM221.56 505.3h46.61c8.15 0 14.75-6.61 14.75-14.75V269.73c0-8.15-6.61-14.75-14.75-14.75h-14.02c-26.15 0-47.35 21.2-47.35 47.35v188.22c0 8.14 6.61 14.75 14.76 14.75z" fill="#B7B3FF" p-id="2482"></path><path d="M282.92 489.91h-22.54v173.2c0 6.22 5.04 11.27 11.27 11.27 6.22 0 11.27-5.04 11.27-11.27v-173.2zM392.5 425.71h-22.54v240.13c0 6.22 5.04 11.27 11.27 11.27 6.22 0 11.27-5.04 11.27-11.27V425.71z" fill="#B7B3FF" p-id="2483"></path><path d="M381.23 243.74c-6.22 0-11.27 5.04-11.27 11.27v126.05c0 6.22 5.04 11.27 11.27 11.27 6.22 0 11.27-5.04 11.27-11.27V255.01c0-6.22-5.04-11.27-11.27-11.27z" fill="#B7B3FF" p-id="2484"></path><path d="M524.59 797.85H132.78v-79.7h312.11c44.02 0 79.7 35.68 79.7 79.7z" fill="#B7B3FF" p-id="2485"></path><path d="M496.82 797.85h394.4v-79.7H576.51c-44.01 0-79.69 35.68-79.69 79.7z" fill="#B7B3FF" p-id="2486"></path><path d="M510.14 216.98a5.63 5.63 0 0 0-5.63 5.63v525.06a5.63 5.63 0 0 0 5.63 5.63 5.63 5.63 0 0 0 5.63-5.63V222.62c0-3.11-2.52-5.64-5.63-5.64z" fill="#B7B3FF" p-id="2487"></path></svg>